<svg width="140" height="30" viewBox="0 0 140 30" fill="none" xmlns="http://www.w3.org/2000/svg">
<path d="M64.1722 5.97607H60.3468C60.3077 5.97607 60.2702 5.99163 60.2425 6.0193C60.2148 6.04697 60.1993 6.0845 60.1993 6.12364V10.8638C60.1988 10.8835 60.2022 10.9031 60.2094 10.9214C60.2166 10.9397 60.2274 10.9564 60.2411 10.9705C60.2549 10.9846 60.2713 10.9958 60.2895 11.0035C60.3076 11.0111 60.3271 11.015 60.3468 11.015H61.0477C61.0878 11.015 61.1263 10.9991 61.1546 10.9708C61.183 10.9424 61.1989 10.9039 61.1989 10.8638V6.87985H63.3237V10.8712C63.3232 10.8909 63.3267 10.9105 63.3339 10.9288C63.3411 10.9471 63.3518 10.9638 63.3656 10.9779C63.3793 10.992 63.3958 11.0032 63.414 11.0109C63.4321 11.0185 63.4516 11.0224 63.4713 11.0224H64.1722C64.1919 11.0224 64.2113 11.0185 64.2295 11.0109C64.2476 11.0032 64.2641 10.992 64.2778 10.9779C64.2916 10.9638 64.3024 10.9471 64.3096 10.9288C64.3168 10.9105 64.3202 10.8909 64.3197 10.8712V6.131C64.3207 6.11101 64.3177 6.09104 64.3107 6.07228C64.3037 6.05352 64.293 6.03636 64.2792 6.02187C64.2654 6.00738 64.2488 5.99583 64.2304 5.98796C64.212 5.98009 64.1922 5.97605 64.1722 5.97607Z" fill="#FF5B00"/>
<path d="M109.867 5.97612H106.042C106.022 5.97563 106.003 5.97908 105.984 5.98627C105.966 5.99347 105.949 6.00427 105.935 6.01802C105.921 6.03177 105.91 6.04819 105.902 6.06634C105.895 6.08448 105.891 6.10399 105.891 6.12368V10.8639C105.891 10.904 105.907 10.9424 105.935 10.9708C105.963 10.9992 106.002 11.0151 106.042 11.0151H106.743C106.762 11.0151 106.782 11.0112 106.8 11.0035C106.818 10.9959 106.835 10.9847 106.848 10.9706C106.862 10.9565 106.873 10.9398 106.88 10.9215C106.887 10.9031 106.891 10.8835 106.89 10.8639V6.8799H109.015V10.8712C109.015 10.8909 109.018 10.9105 109.025 10.9288C109.032 10.9472 109.043 10.9639 109.057 10.978C109.071 10.9921 109.087 11.0033 109.105 11.0109C109.123 11.0185 109.143 11.0225 109.163 11.0225H109.867C109.887 11.0225 109.906 11.0185 109.925 11.0109C109.943 11.0033 109.959 10.9921 109.973 10.978C109.987 10.9639 109.997 10.9472 110.005 10.9288C110.012 10.9105 110.015 10.8909 110.015 10.8712V6.13105C110.016 6.11106 110.013 6.09109 110.006 6.07233C109.999 6.05356 109.988 6.03641 109.974 6.02192C109.96 6.00742 109.944 5.99588 109.925 5.98801C109.907 5.98014 109.887 5.9761 109.867 5.97612Z" fill="#FF5B00"/>
<path d="M124.318 5.97607H120.589C120.55 5.97607 120.512 5.99163 120.485 6.0193C120.457 6.04697 120.441 6.0845 120.441 6.12364V6.72492C120.441 6.76406 120.457 6.80159 120.485 6.82926C120.512 6.85693 120.55 6.87246 120.589 6.87246H121.954V10.8638C121.953 10.8835 121.957 10.9031 121.964 10.9214C121.971 10.9397 121.982 10.9564 121.996 10.9705C122.01 10.9846 122.026 10.9958 122.044 11.0035C122.062 11.0111 122.082 11.015 122.101 11.015H122.802C122.842 11.015 122.881 10.9991 122.909 10.9708C122.938 10.9424 122.954 10.9039 122.954 10.8638V6.87985H124.318C124.358 6.87985 124.395 6.86429 124.423 6.83662C124.45 6.80895 124.466 6.77142 124.466 6.73229V6.131C124.467 6.11101 124.464 6.09104 124.457 6.07228C124.45 6.05352 124.439 6.03636 124.425 6.02187C124.412 6.00738 124.395 5.99583 124.377 5.98796C124.358 5.98009 124.338 5.97605 124.318 5.97607Z" fill="#FF5B00"/>
<path d="M131.553 5.97607H127.823C127.784 5.97607 127.747 5.99163 127.719 6.0193C127.691 6.04697 127.676 6.0845 127.676 6.12364V6.72492C127.676 6.76406 127.691 6.80159 127.719 6.82926C127.747 6.85693 127.784 6.87246 127.823 6.87246H129.188V10.8638C129.188 10.8837 129.192 10.9033 129.2 10.9217C129.207 10.94 129.218 10.9567 129.233 10.9708C129.247 10.9848 129.263 10.9959 129.282 11.0035C129.3 11.0111 129.32 11.015 129.339 11.015H130.04C130.06 11.015 130.08 11.0111 130.098 11.0035C130.116 10.9958 130.132 10.9846 130.146 10.9705C130.16 10.9564 130.171 10.9397 130.178 10.9214C130.185 10.9031 130.188 10.8835 130.188 10.8638V6.87985H131.553C131.592 6.87985 131.629 6.86429 131.657 6.83662C131.685 6.80895 131.7 6.77142 131.7 6.73229V6.131C131.701 6.11101 131.698 6.09104 131.691 6.07228C131.684 6.05352 131.674 6.03636 131.66 6.02187C131.646 6.00738 131.629 5.99583 131.611 5.98796C131.593 5.98009 131.573 5.97605 131.553 5.97607Z" fill="#FF5B00"/>
<path d="M85.8006 8.42568L87.1618 6.21237C87.1755 6.19002 87.1831 6.1644 87.1837 6.13816C87.1843 6.11191 87.1778 6.08598 87.1651 6.06305C87.1523 6.04012 87.1336 6.02101 87.111 6.0077C87.0883 5.99439 87.0626 5.98738 87.0364 5.98735H86.2285C86.2033 5.98702 86.1784 5.99331 86.1564 6.00561C86.1344 6.01791 86.116 6.03577 86.1031 6.05742L84.8968 8.02358H84.2697V6.13489C84.2697 6.1152 84.2658 6.09572 84.2581 6.07757C84.2505 6.05942 84.2393 6.04298 84.2252 6.02923C84.2111 6.01548 84.1944 6.0047 84.1761 5.99751C84.1577 5.99031 84.1381 5.98686 84.1185 5.98735H83.425C83.3858 5.98735 83.3483 6.00289 83.3206 6.03056C83.2929 6.05823 83.2774 6.09576 83.2774 6.13489V10.8751C83.2769 10.8948 83.2804 10.9144 83.2876 10.9327C83.2948 10.951 83.3056 10.9677 83.3193 10.9818C83.3331 10.9959 83.3495 11.0071 83.3676 11.0147C83.3858 11.0224 83.4053 11.0263 83.425 11.0263H84.1258C84.166 11.0263 84.2044 11.0104 84.2328 10.982C84.2612 10.9536 84.2771 10.9152 84.2771 10.8751V8.92736H84.9706L86.2543 10.9599C86.2673 10.9816 86.2856 10.9994 86.3076 11.0117C86.3297 11.024 86.3545 11.0303 86.3797 11.03H87.1839C87.2107 11.0304 87.2372 11.0235 87.2603 11.01C87.2835 10.9965 87.3026 10.9769 87.3155 10.9534C87.3284 10.9299 87.3346 10.9033 87.3335 10.8765C87.3324 10.8497 87.3241 10.8237 87.3093 10.8013L85.8006 8.42568Z" fill="#FF5B00"/>
<path d="M79.487 5.97611H78.8636C78.8402 5.97556 78.817 5.98105 78.7964 5.99203C78.7757 6.00301 78.7582 6.01912 78.7456 6.03882L76.2888 9.46209V6.12367C76.2888 6.08454 76.2732 6.04701 76.2455 6.01934C76.2179 5.99167 76.1803 5.97611 76.1412 5.97611H75.4366C75.4173 5.97611 75.3981 5.97993 75.3802 5.98735C75.3623 5.99476 75.346 6.00564 75.3323 6.01934C75.3186 6.03304 75.3077 6.04931 75.3003 6.06721C75.2929 6.08511 75.2891 6.1043 75.2891 6.12367V10.8638C75.2886 10.8835 75.292 10.9031 75.2992 10.9214C75.3064 10.9398 75.3172 10.9565 75.331 10.9706C75.3447 10.9847 75.3612 10.9959 75.3793 11.0035C75.3975 11.0112 75.4169 11.0151 75.4366 11.0151H76.1154C76.1391 11.0144 76.1623 11.0084 76.1834 10.9975C76.2044 10.9867 76.2228 10.9713 76.2371 10.9524L78.6386 7.60658V10.8638C78.6381 10.8835 78.6415 10.9031 78.6487 10.9214C78.6559 10.9398 78.6667 10.9565 78.6805 10.9706C78.6942 10.9847 78.7107 10.9959 78.7288 11.0035C78.747 11.0112 78.7664 11.0151 78.7861 11.0151H79.487C79.5067 11.0151 79.5262 11.0112 79.5444 11.0035C79.5625 10.9959 79.5789 10.9847 79.5927 10.9706C79.6064 10.9565 79.6172 10.9398 79.6244 10.9214C79.6316 10.9031 79.635 10.8835 79.6345 10.8638V6.13104C79.6355 6.11105 79.6325 6.09108 79.6255 6.07232C79.6186 6.05356 79.6078 6.0364 79.594 6.02191C79.5802 6.00741 79.5637 5.99587 79.5453 5.988C79.5269 5.98013 79.507 5.97609 79.487 5.97611Z" fill="#FF5B00"/>
<path d="M71.0373 6.16462C70.7257 6.03879 70.3919 5.97731 70.056 5.98387H68.1046C68.0852 5.98387 68.066 5.98769 68.0481 5.99511C68.0302 6.00252 68.014 6.01338 68.0003 6.02708C67.9866 6.04078 67.9757 6.05705 67.9683 6.07495C67.9609 6.09285 67.9571 6.11204 67.9571 6.13142V10.8716C67.9566 10.8913 67.96 10.9109 67.9672 10.9292C67.9744 10.9475 67.9852 10.9642 67.999 10.9783C68.0127 10.9924 68.0291 11.0036 68.0473 11.0113C68.0654 11.0189 68.0849 11.0228 68.1046 11.0228H68.8055C68.8252 11.0228 68.8447 11.0189 68.8628 11.0113C68.881 11.0036 68.8974 10.9924 68.9112 10.9783C68.9249 10.9642 68.9357 10.9475 68.9429 10.9292C68.9501 10.9109 68.9535 10.8913 68.9531 10.8716V9.16736H70.0597C70.3949 9.17724 70.7286 9.11952 71.041 8.99766C71.306 8.89382 71.5327 8.71094 71.6902 8.47385C71.8394 8.20195 71.9176 7.89681 71.9176 7.58667C71.9176 7.27653 71.8394 6.97142 71.6902 6.69951C71.5334 6.45772 71.3052 6.27076 71.0373 6.16462ZM70.6684 8.17136C70.4864 8.31485 70.2577 8.38581 70.0265 8.37055H68.9604V6.78435H70.0265C70.1456 6.7746 70.2653 6.78955 70.3783 6.82828C70.4913 6.867 70.5951 6.92865 70.6831 7.00936C70.8258 7.16479 70.9014 7.37028 70.8934 7.58113C70.9038 7.69361 70.8883 7.80698 70.848 7.91251C70.8077 8.01804 70.7437 8.11291 70.661 8.1898L70.6684 8.17136Z" fill="#FF5B00"/>
<path d="M101.639 6.16457C101.327 6.03912 100.993 5.97766 100.658 5.98382H98.7062C98.6671 5.98382 98.6295 5.99935 98.6019 6.02703C98.5742 6.0547 98.5586 6.09223 98.5586 6.13136V10.8716C98.5581 10.8912 98.5616 10.9108 98.5688 10.9291C98.576 10.9475 98.5868 10.9642 98.6005 10.9783C98.6143 10.9924 98.6307 11.0036 98.6489 11.0112C98.667 11.0189 98.6865 11.0228 98.7062 11.0228H99.4071C99.4268 11.0228 99.4463 11.0189 99.4644 11.0112C99.4826 11.0036 99.499 10.9924 99.5127 10.9783C99.5265 10.9642 99.5373 10.9475 99.5445 10.9291C99.5517 10.9108 99.5551 10.8912 99.5546 10.8716V9.16731H100.661C100.996 9.17689 101.33 9.11918 101.643 8.99761C101.907 8.89374 102.132 8.71079 102.288 8.4738C102.44 8.20289 102.52 7.89736 102.52 7.58662C102.52 7.27588 102.44 6.97037 102.288 6.69946C102.133 6.45776 101.906 6.27072 101.639 6.16457ZM101.27 8.17131C101.088 8.3148 100.859 8.38576 100.628 8.3705H99.562V6.7843H100.628C100.747 6.77416 100.866 6.78895 100.978 6.8277C101.091 6.86646 101.194 6.92831 101.281 7.00931C101.353 7.08564 101.409 7.17551 101.446 7.27368C101.482 7.37185 101.499 7.47634 101.495 7.58108C101.504 7.69342 101.488 7.80633 101.447 7.9116C101.407 8.01687 101.344 8.11187 101.263 8.18975L101.27 8.17131Z" fill="#FF5B00"/>
<path d="M138.488 5.97601H136.644C136.309 5.96984 135.976 6.03131 135.666 6.15676C135.399 6.26355 135.173 6.45044 135.017 6.69165C134.868 6.96355 134.789 7.26867 134.789 7.57881C134.789 7.88894 134.868 8.19408 135.017 8.46599C135.174 8.70308 135.401 8.88595 135.666 8.9898C135.714 9.01193 135.769 9.01931 135.821 9.03776L134.74 10.7863C134.727 10.8089 134.719 10.8347 134.719 10.861C134.718 10.8874 134.725 10.9134 134.737 10.9365C134.75 10.9596 134.769 10.979 134.791 10.9928C134.814 11.0066 134.839 11.0142 134.866 11.015H135.603C135.628 11.0146 135.653 11.008 135.675 10.9958C135.697 10.9836 135.715 10.9661 135.729 10.9449L136.835 9.15949H137.614V10.8637C137.613 10.8834 137.617 10.903 137.624 10.9213C137.631 10.9397 137.642 10.9564 137.656 10.9705C137.669 10.9846 137.686 10.9958 137.704 11.0034C137.722 11.0111 137.742 11.015 137.761 11.015H138.466C138.486 11.015 138.505 11.0111 138.523 11.0034C138.541 10.9958 138.558 10.9846 138.572 10.9705C138.585 10.9564 138.596 10.9397 138.603 10.9213C138.61 10.903 138.614 10.8834 138.613 10.8637V6.13093C138.616 6.0941 138.604 6.05778 138.581 6.0291C138.558 6.00042 138.525 5.98147 138.488 5.97601ZM137.636 8.36269H136.692C136.46 8.37759 136.232 8.30667 136.05 8.1635C135.973 8.08668 135.913 7.99424 135.875 7.89242C135.837 7.7906 135.821 7.68178 135.828 7.57329C135.824 7.46879 135.84 7.36437 135.876 7.26619C135.912 7.168 135.967 7.07803 136.039 7.00152C136.126 6.92109 136.229 6.85958 136.342 6.82086C136.454 6.78214 136.573 6.76703 136.692 6.77648H137.636V8.36269Z" fill="#FF5B00"/>
<path d="M93.5285 6.08298C93.5181 6.05411 93.499 6.02913 93.474 6.01134C93.4489 5.99355 93.4191 5.9838 93.3884 5.9834H92.3149C92.2842 5.9838 92.2543 5.99355 92.2293 6.01134C92.2043 6.02913 92.1852 6.05411 92.1747 6.08298L90.4742 10.8232C90.4658 10.8457 90.463 10.8698 90.4661 10.8936C90.4691 10.9174 90.4779 10.9401 90.4917 10.9598C90.5055 10.9794 90.5239 10.9953 90.5453 11.0062C90.5666 11.0172 90.5903 11.0227 90.6143 11.0224H91.2968C91.3275 11.022 91.3574 11.0122 91.3824 10.9944C91.4075 10.9766 91.4265 10.9516 91.4369 10.9228L91.7763 9.97842H93.9269L94.2663 10.9228C94.2768 10.9516 94.2958 10.9766 94.3209 10.9944C94.3459 11.0122 94.3758 11.022 94.4065 11.0224H95.0889C95.1129 11.0227 95.1366 11.0172 95.158 11.0062C95.1794 10.9953 95.1978 10.9794 95.2116 10.9598C95.2254 10.9401 95.2342 10.9174 95.2373 10.8936C95.2403 10.8698 95.2375 10.8457 95.2291 10.8232L93.5285 6.08298ZM92.053 9.17794L92.8424 6.98306L93.6281 9.17794H92.053Z" fill="#FF5B00"/>
<path d="M116.383 6.08298C116.373 6.05411 116.354 6.02913 116.329 6.01134C116.304 5.99355 116.274 5.9838 116.243 5.9834H115.158C115.128 5.98348 115.099 5.99316 115.074 6.01105C115.05 6.02894 115.031 6.05411 115.022 6.08298L113.314 10.8232C113.306 10.8457 113.303 10.8698 113.306 10.8936C113.309 10.9174 113.318 10.9401 113.332 10.9598C113.345 10.9794 113.364 10.9953 113.385 11.0062C113.407 11.0172 113.43 11.0227 113.454 11.0224H114.137C114.167 11.022 114.197 11.0122 114.222 10.9944C114.247 10.9766 114.266 10.9516 114.277 10.9228L114.616 9.97842H116.767L117.106 10.9228C117.117 10.9516 117.136 10.9766 117.161 10.9944C117.186 11.0122 117.216 11.022 117.246 11.0224H117.929C117.953 11.0227 117.977 11.0172 117.998 11.0062C118.019 10.9953 118.038 10.9794 118.051 10.9598C118.065 10.9401 118.074 10.9174 118.077 10.8936C118.08 10.8698 118.077 10.8457 118.069 10.8232L116.383 6.08298ZM114.908 9.17794L115.697 6.98306L116.483 9.17794H114.908Z" fill="#FF5B00"/>
<path d="M75.5911 18.9605C74.8956 18.4144 74.0244 18.1415 73.1417 18.1933H71.0538V16.3046H75.5358C75.5812 16.3046 75.6261 16.2956 75.6679 16.2781C75.7098 16.2606 75.7478 16.235 75.7797 16.2028C75.8116 16.1705 75.8368 16.1323 75.8538 16.0902C75.8708 16.0482 75.8793 16.0032 75.8788 15.9578V14.8511C75.8788 14.7592 75.8423 14.671 75.7773 14.606C75.7123 14.5409 75.6241 14.5044 75.5321 14.5044H69.2611C69.1697 14.5054 69.0824 14.5423 69.0182 14.6072C68.954 14.6722 68.918 14.7598 68.918 14.8511V23.5716C68.918 23.6629 68.954 23.7506 69.0182 23.8155C69.0824 23.8804 69.1697 23.9174 69.2611 23.9184H73.138C73.6326 23.9248 74.1244 23.8449 74.5914 23.6823C74.9789 23.5462 75.3334 23.3301 75.6317 23.0478C75.9031 22.7851 76.1188 22.4703 76.2658 22.1223C76.4129 21.7744 76.4883 21.4003 76.4875 21.0226C76.5032 20.6335 76.4308 20.246 76.2756 19.8889C76.1203 19.5318 75.8863 19.2144 75.5911 18.9605ZM74.1156 21.6571C74.0138 21.8632 73.8567 22.0368 73.6618 22.1588C73.4378 22.2878 73.1826 22.3529 72.9241 22.3469H71.0428V19.7389H72.9204C73.1042 19.7261 73.2886 19.7524 73.4615 19.816C73.6345 19.8795 73.792 19.979 73.9237 20.1078C74.0382 20.2259 74.1279 20.3657 74.1874 20.5191C74.247 20.6724 74.2752 20.8361 74.2705 21.0005C74.2745 21.2276 74.2252 21.4525 74.1266 21.6571H74.1156Z" fill="#FF5B00"/>
<path d="M63.0354 14.3818C61.6705 14.3818 60.2872 14.8171 59.5531 16.0455C59.0035 16.9751 58.9961 17.8457 58.9961 19.2143C58.9961 20.5828 58.9961 21.4497 59.5531 22.383C60.2909 23.6114 61.6705 24.0466 63.0354 24.0466C64.4003 24.0466 65.7873 23.6114 66.5214 22.383C67.071 21.4497 67.0784 20.5791 67.0784 19.2143C67.0784 17.8494 67.0784 16.9751 66.5214 16.0455C65.7873 14.8282 64.404 14.3818 63.0354 14.3818ZM64.5958 21.4681C64.4296 21.7318 64.1993 21.9491 63.9265 22.0996C63.6536 22.2502 63.3471 22.3292 63.0354 22.3292C62.7238 22.3292 62.4172 22.2502 62.1443 22.0996C61.8715 21.9491 61.6412 21.7318 61.475 21.4681C61.1983 20.9148 61.1983 20.2545 61.1983 19.2327C61.1983 18.2109 61.1983 17.5506 61.475 16.9936C61.6412 16.7299 61.8715 16.5126 62.1443 16.3621C62.4172 16.2115 62.7238 16.1325 63.0354 16.1325C63.3471 16.1325 63.6536 16.2115 63.9265 16.3621C64.1993 16.5126 64.4296 16.7299 64.5958 16.9936C64.8762 17.5506 64.8762 18.2109 64.8762 19.2327C64.8762 20.2545 64.8762 20.8964 64.5958 21.4681Z" fill="#FF5B00"/>
<path d="M139.412 16.0455C138.674 14.8171 137.295 14.3818 135.93 14.3818C134.565 14.3818 133.178 14.8171 132.444 16.0455C131.894 16.9751 131.891 17.8457 131.891 19.2143C131.891 20.5828 131.891 21.4497 132.444 22.383C133.182 23.6114 134.561 24.0466 135.93 24.0466C137.299 24.0466 138.682 23.6114 139.412 22.383C139.962 21.4497 139.969 20.5791 139.969 19.2143C139.969 17.8494 139.962 16.9751 139.412 16.0455ZM137.49 21.4681C137.324 21.7318 137.094 21.9491 136.821 22.0996C136.548 22.2502 136.242 22.3292 135.93 22.3292C135.618 22.3292 135.312 22.2502 135.039 22.0996C134.766 21.9491 134.536 21.7318 134.37 21.4681C134.089 20.9148 134.089 20.2545 134.089 19.2327C134.089 18.2109 134.089 17.5506 134.37 16.9936C134.536 16.7299 134.766 16.5126 135.039 16.3621C135.312 16.2115 135.618 16.1325 135.93 16.1325C136.242 16.1325 136.548 16.2115 136.821 16.3621C137.094 16.5126 137.324 16.7299 137.49 16.9936C137.767 17.5506 137.767 18.2109 137.767 19.2327C137.767 20.2545 137.767 20.8964 137.49 21.4681Z" fill="#FF5B00"/>
<path d="M85.806 14.5071H79.5977C79.5037 14.5128 79.4154 14.5541 79.351 14.6227C79.2865 14.6913 79.2507 14.7819 79.2509 14.876C79.2509 19.3654 79.1808 20.4093 78.7677 21.1766C78.4762 21.7373 78.1885 21.9881 77.768 22.0619C77.6871 22.075 77.6136 22.1162 77.5602 22.1783C77.5069 22.2405 77.4773 22.3194 77.4766 22.4013V23.5891C77.4765 23.6366 77.4861 23.6836 77.5049 23.7271C77.5237 23.7707 77.5512 23.81 77.5858 23.8425C77.6204 23.875 77.6613 23.9 77.7059 23.9161C77.7506 23.9322 77.7981 23.9389 77.8454 23.9359C78.5832 23.9359 80.0588 23.7662 80.6969 22.3644C81.2908 21.0954 81.3425 19.5203 81.3425 16.3294H84.0316V23.5928C84.0326 23.6841 84.0696 23.7714 84.1345 23.8356C84.1994 23.8998 84.2871 23.9359 84.3784 23.9359H85.8208C85.9121 23.9359 85.9997 23.8998 86.0646 23.8356C86.1296 23.7714 86.1665 23.6841 86.1675 23.5928V14.8539C86.1675 14.8071 86.1581 14.7608 86.1397 14.7177C86.1214 14.6746 86.0945 14.6357 86.0608 14.6033C86.027 14.5709 85.987 14.5457 85.9432 14.5292C85.8994 14.5127 85.8527 14.5052 85.806 14.5071Z" fill="#FF5B00"/>
<path d="M94.7448 22.1219H90.3624V20.0672H94.3427C94.4347 20.0672 94.5229 20.0307 94.5879 19.9656C94.6529 19.9006 94.6894 19.8124 94.6894 19.7204V18.647C94.6894 18.6014 94.6805 18.5564 94.6631 18.5143C94.6456 18.4722 94.6201 18.434 94.5879 18.4018C94.5557 18.3696 94.5175 18.3441 94.4754 18.3266C94.4334 18.3092 94.3883 18.3002 94.3427 18.3002H90.3624V16.3046H94.6305C94.7224 16.3046 94.8106 16.268 94.8756 16.203C94.9407 16.138 94.9772 16.0498 94.9772 15.9578V14.8511C94.9772 14.7592 94.9407 14.671 94.8756 14.606C94.8106 14.5409 94.7224 14.5044 94.6305 14.5044H88.5733C88.4814 14.5044 88.3932 14.5409 88.3282 14.606C88.2631 14.671 88.2266 14.7592 88.2266 14.8511V23.5716C88.2275 23.6629 88.2645 23.7502 88.3295 23.8144C88.3944 23.8786 88.482 23.9147 88.5733 23.9147H94.7448C94.8368 23.9147 94.9249 23.8781 94.99 23.8131C95.055 23.7481 95.0916 23.6599 95.0916 23.5679V22.4613C95.0896 22.3706 95.0522 22.2843 94.9874 22.2208C94.9226 22.1574 94.8355 22.1219 94.7448 22.1219Z" fill="#FF5B00"/>
<path d="M130.497 14.5083H124.886C124.794 14.5083 124.706 14.5448 124.641 14.6099C124.576 14.6749 124.539 14.7631 124.539 14.8551V23.5755C124.54 23.6668 124.577 23.7541 124.642 23.8183C124.707 23.8826 124.794 23.9186 124.886 23.9186H126.336C126.427 23.9186 126.514 23.8824 126.578 23.8181C126.642 23.7538 126.679 23.6665 126.679 23.5755V16.3048H130.497C130.588 16.3038 130.675 16.2668 130.739 16.2019C130.804 16.137 130.84 16.0493 130.84 15.958V14.8514C130.839 14.7607 130.802 14.674 130.738 14.6098C130.674 14.5457 130.587 14.5093 130.497 14.5083Z" fill="#FF5B00"/>
<path d="M113.299 22.1219H108.917V20.0672H112.894C112.986 20.0672 113.074 20.0307 113.139 19.9656C113.204 19.9006 113.24 19.8124 113.24 19.7204V18.647C113.24 18.6014 113.231 18.5564 113.214 18.5143C113.197 18.4722 113.171 18.434 113.139 18.4018C113.107 18.3696 113.068 18.3441 113.026 18.3266C112.984 18.3092 112.939 18.3002 112.894 18.3002H108.917V16.3046H113.185C113.276 16.3036 113.364 16.2666 113.428 16.2017C113.492 16.1368 113.528 16.0491 113.528 15.9578V14.8511C113.528 14.7598 113.492 14.6722 113.428 14.6072C113.364 14.5423 113.276 14.5054 113.185 14.5044H107.124C107.033 14.5054 106.946 14.5423 106.881 14.6072C106.817 14.6722 106.781 14.7598 106.781 14.8511V23.5716C106.781 23.6626 106.817 23.7499 106.882 23.8142C106.946 23.8785 107.033 23.9147 107.124 23.9147H113.299C113.391 23.9137 113.478 23.8767 113.542 23.8118C113.607 23.7469 113.643 23.6592 113.643 23.5679V22.4613C113.641 22.3712 113.604 22.2854 113.54 22.2221C113.476 22.1588 113.39 22.1228 113.299 22.1219Z" fill="#FF5B00"/>
<path d="M104.359 14.5083H102.913C102.822 14.5093 102.735 14.5462 102.671 14.6111C102.606 14.6761 102.57 14.7637 102.57 14.8551V18.3004H98.9406V14.8551C98.9406 14.7637 98.9045 14.6761 98.8403 14.6111C98.7761 14.5462 98.6888 14.5093 98.5975 14.5083H97.1515C97.0595 14.5083 96.9713 14.5448 96.9063 14.6099C96.8412 14.6749 96.8047 14.7631 96.8047 14.8551V23.5755C96.8057 23.6668 96.8426 23.7541 96.9075 23.8183C96.9725 23.8826 97.0601 23.9186 97.1515 23.9186H98.5717C98.6627 23.9186 98.7499 23.8824 98.8142 23.8181C98.8786 23.7538 98.9147 23.6665 98.9147 23.5755V20.0674H102.556V23.5755C102.556 23.6665 102.592 23.7538 102.656 23.8181C102.72 23.8824 102.808 23.9186 102.899 23.9186H104.345C104.39 23.9186 104.434 23.9097 104.476 23.8925C104.518 23.8752 104.555 23.85 104.587 23.8181C104.619 23.7862 104.644 23.7484 104.662 23.7068C104.679 23.6652 104.688 23.6206 104.688 23.5755V14.8551C104.688 14.7662 104.654 14.6807 104.593 14.6161C104.532 14.5516 104.448 14.513 104.359 14.5083Z" fill="#FF5B00"/>
<path d="M121.28 14.8465C120.694 14.6112 120.067 14.4958 119.436 14.5071H115.71C115.618 14.5071 115.53 14.5436 115.465 14.6087C115.4 14.6737 115.363 14.7619 115.363 14.8539V23.5743C115.364 23.6657 115.401 23.7529 115.466 23.8171C115.531 23.8814 115.619 23.9174 115.71 23.9174H117.156C117.247 23.9174 117.334 23.8812 117.399 23.8169C117.463 23.7526 117.499 23.6653 117.499 23.5743V20.5199H119.436C120.066 20.5352 120.692 20.4261 121.28 20.199C121.782 20.0007 122.211 19.653 122.509 19.203C122.814 18.698 122.964 18.1143 122.94 17.5246C122.96 16.9388 122.81 16.3599 122.509 15.8572C122.216 15.3994 121.786 15.0457 121.28 14.8465ZM120.358 18.5353C120.053 18.7824 119.665 18.9038 119.273 18.8747H117.495V16.1818H119.273C119.473 16.1649 119.675 16.1889 119.865 16.2523C120.055 16.3157 120.23 16.4173 120.38 16.5507C120.503 16.681 120.6 16.8345 120.663 17.0024C120.726 17.1702 120.756 17.349 120.749 17.5283C120.763 17.7146 120.735 17.9017 120.667 18.0759C120.599 18.2501 120.494 18.4071 120.358 18.5353Z" fill="#FF5B00"/>
<path d="M45.5992 12.583C44.9629 12.584 44.3531 12.8375 43.9035 13.2877C43.4539 13.738 43.2014 14.3482 43.2014 14.9845C43.201 17.2347 42.4564 19.4217 41.0837 21.2047C39.711 22.9878 37.7871 24.2668 35.6118 24.8426C33.4365 25.4185 31.1318 25.2587 29.0567 24.3884C26.9816 23.518 25.2525 21.9859 24.1388 20.0306C23.0251 18.0752 22.5893 15.8065 22.8992 13.5777C23.2092 11.3489 24.2475 9.28514 25.8524 7.70786C27.4573 6.13058 29.5388 5.12832 31.7727 4.85717C34.0065 4.58601 36.2673 5.06119 38.203 6.2087L29.6707 14.7447C29.2192 15.1938 28.9646 15.8038 28.9628 16.4406C28.9611 17.0774 29.2124 17.6888 29.6615 18.1403C30.1105 18.5918 30.7206 18.8464 31.3574 18.8482C31.9942 18.8499 32.6056 18.5986 33.0571 18.1495L43.515 7.69899C43.963 7.24715 44.2144 6.6366 44.2144 6.00027C44.2144 5.36395 43.963 4.7534 43.515 4.30156C40.9549 1.78651 37.5783 0.272207 33.9974 0.0333043C30.4166 -0.205598 26.8687 0.846712 23.9972 2.99939C21.7688 1.32835 19.1191 0.310834 16.3449 0.0608627C13.5708 -0.189108 10.7819 0.338335 8.29061 1.58409C5.79935 2.82985 3.70419 4.74471 2.23988 7.11411C0.775576 9.48352 0 12.2139 0 14.9992C0 17.7846 0.775576 20.515 2.23988 22.8844C3.70419 25.2538 5.79935 27.1686 8.29061 28.4144C10.7819 29.6601 13.5708 30.1876 16.3449 29.9376C19.1191 29.6876 21.7688 28.6701 23.9972 26.9991C26.2256 28.6708 28.8756 29.689 31.6501 29.9393C34.4247 30.1897 37.2141 29.6623 39.7057 28.4165C42.1974 27.1707 44.2929 25.2555 45.7574 22.8857C47.2218 20.5159 47.9973 17.785 47.9969 14.9992C47.9984 14.6831 47.9375 14.3697 47.8178 14.0771C47.698 13.7845 47.5217 13.5184 47.299 13.294C47.0763 13.0696 46.8115 12.8913 46.5199 12.7693C46.2282 12.6473 45.9153 12.584 45.5992 12.583ZM20.6441 23.4799C19.1075 24.5009 17.3228 25.0859 15.4801 25.1729C13.6374 25.2598 11.8055 24.8453 10.1797 23.9735C8.55388 23.1018 7.19489 21.8054 6.24751 20.2225C5.30012 18.6395 4.79979 16.8293 4.79979 14.9845C4.79979 13.1397 5.30012 11.3294 6.24751 9.74648C7.19489 8.16353 8.55388 6.86716 10.1797 5.99541C11.8055 5.12367 13.6374 4.7092 15.4801 4.79613C17.3228 4.88305 19.1075 5.46813 20.6441 6.48905C18.9242 8.98749 18.0018 11.9485 17.9985 14.9816C17.9952 18.0148 18.9112 20.9778 20.6256 23.4799H20.6441Z" fill="#FF5B00"/>
</svg>
