<svg width="29" height="29" viewBox="0 0 29 29" fill="none" xmlns="http://www.w3.org/2000/svg">
<g clip-path="url(#clip0_32_484)">
<path fill-rule="evenodd" clip-rule="evenodd" d="M10.3994 16.4343L14.5029 19.2401L18.4585 16.5112L27.3253 25.259C27.0918 25.3344 26.8424 25.375 26.5829 25.375H2.41715C2.09815 25.375 1.79365 25.3126 1.5138 25.201L10.3994 16.4343ZM29 9.2452V22.9579C29 23.316 28.9217 23.6553 28.7825 23.9613L20.0912 15.386L29 9.2452ZM1.36822e-06 9.32205L8.7609 15.3134L0.153701 23.8076C0.0517602 23.5359 -0.000307738 23.248 1.36822e-06 22.9579V9.32205ZM26.5829 3.625C27.9169 3.625 29 4.7067 29 6.04215V6.89185L14.4971 16.8896L1.36822e-06 6.9745V6.04215C1.36822e-06 4.70815 1.0817 3.625 2.41715 3.625H26.5829Z" fill="#3DB457"/>
</g>
<defs>
<clipPath id="clip0_32_484">
<rect width="29" height="29" fill="white"/>
</clipPath>
</defs>
</svg>
