<svg width="29" height="29" viewBox="0 0 29 29" fill="none" xmlns="http://www.w3.org/2000/svg">
<path d="M15.7422 2.41799C16.624 2.41461 17.5057 2.42347 18.3873 2.44457L18.6217 2.45303C18.8923 2.4627 19.1594 2.47478 19.482 2.48928C20.7677 2.5497 21.6449 2.7527 22.4146 3.05116C23.2121 3.35807 23.884 3.77374 24.5558 4.44557C25.1701 5.04926 25.6455 5.77951 25.949 6.58553C26.2475 7.35524 26.4505 8.2337 26.5109 9.51937C26.5254 9.84078 26.5375 10.109 26.5471 10.3797L26.5544 10.6141C26.5758 11.4952 26.5851 12.3766 26.5822 13.2579L26.5834 14.1594V15.7423C26.5864 16.624 26.5771 17.5058 26.5556 18.3873L26.5483 18.6217C26.5387 18.8924 26.5266 19.1594 26.5121 19.4821C26.4517 20.7677 26.2463 21.645 25.949 22.4147C25.6465 23.2216 25.171 23.9524 24.5558 24.5559C23.9516 25.1701 23.221 25.6455 22.4146 25.9491C21.6449 26.2475 20.7677 26.4505 19.482 26.511C19.1594 26.5255 18.8923 26.5375 18.6217 26.5472L18.3873 26.5545C17.5057 26.5759 16.624 26.5852 15.7422 26.5822L14.8408 26.5835H13.2591C12.3773 26.5864 11.4956 26.5772 10.614 26.5557L10.3796 26.5484C10.0928 26.538 9.806 26.5259 9.5193 26.5122C8.23363 26.4517 7.35638 26.2463 6.58546 25.9491C5.77912 25.6462 5.04875 25.1707 4.4455 24.5559C3.83052 23.952 3.35465 23.2213 3.05109 22.4147C2.75263 21.645 2.54963 20.7677 2.48921 19.4821C2.47576 19.1954 2.46367 18.9086 2.45296 18.6217L2.44692 18.3873C2.42464 17.5058 2.41457 16.6241 2.41671 15.7423V13.2579C2.41334 12.3766 2.4222 11.4952 2.4433 10.6141L2.45175 10.3797C2.46142 10.109 2.4735 9.84078 2.488 9.51937C2.54842 8.23249 2.75142 7.35645 3.04988 6.58553C3.35362 5.77912 3.83042 5.04907 4.44671 4.44678C5.04954 3.83144 5.77946 3.35514 6.58546 3.05116C7.35638 2.7527 8.23242 2.5497 9.5193 2.48928L10.3796 2.45303L10.614 2.44699C11.4951 2.42472 12.3765 2.41465 13.2579 2.41678L15.7422 2.41799ZM14.5 8.45966C13.6995 8.44834 12.9048 8.59623 12.1619 8.89474C11.419 9.19325 10.7429 9.63643 10.1728 10.1985C9.60272 10.7606 9.15003 11.4304 8.84104 12.169C8.53206 12.9075 8.37294 13.7001 8.37294 14.5007C8.37294 15.3013 8.53206 16.0939 8.84104 16.8325C9.15003 17.5711 9.60272 18.2408 10.1728 18.8029C10.7429 19.365 11.419 19.8082 12.1619 20.1067C12.9048 20.4052 13.6995 20.5531 14.5 20.5418C16.1024 20.5418 17.6391 19.9053 18.7722 18.7722C19.9052 17.6392 20.5417 16.1025 20.5417 14.5001C20.5417 12.8978 19.9052 11.361 18.7722 10.228C17.6391 9.09498 16.1024 8.45966 14.5 8.45966ZM14.5 10.8763C14.9816 10.8675 15.46 10.9546 15.9075 11.1327C16.355 11.3109 16.7625 11.5764 17.1062 11.9137C17.4499 12.2511 17.7229 12.6536 17.9093 13.0977C18.0957 13.5417 18.1917 14.0185 18.1918 14.5001C18.1919 14.9817 18.096 15.4585 17.9098 15.9027C17.7235 16.3468 17.4506 16.7494 17.107 17.0868C16.7634 17.4243 16.356 17.69 15.9086 17.8682C15.4612 18.0465 14.9828 18.1338 14.5013 18.1251C13.5398 18.1251 12.6178 17.7432 11.938 17.0634C11.2582 16.3836 10.8763 15.4615 10.8763 14.5001C10.8763 13.5387 11.2582 12.6167 11.938 11.9369C12.6178 11.257 13.5398 10.8751 14.5013 10.8751L14.5 10.8763ZM20.8438 6.64716C20.454 6.66276 20.0853 6.82859 19.815 7.10991C19.5447 7.39124 19.3938 7.76624 19.3938 8.15637C19.3938 8.54649 19.5447 8.92149 19.815 9.20282C20.0853 9.48414 20.454 9.64997 20.8438 9.66557C21.2444 9.66557 21.6286 9.50644 21.9118 9.22318C22.1951 8.93993 22.3542 8.55574 22.3542 8.15516C22.3542 7.75457 22.1951 7.37039 21.9118 7.08713C21.6286 6.80387 21.2444 6.64474 20.8438 6.64474V6.64716Z" fill="#3DB457"/>
</svg>
