<svg width="29" height="29" viewBox="0 0 29 29" fill="none" xmlns="http://www.w3.org/2000/svg">
<path d="M25.2541 2.4165H3.74579C3.39328 2.4165 3.0552 2.55654 2.80593 2.80581C2.55666 3.05508 2.41663 3.39315 2.41663 3.74567V25.254C2.41663 25.6065 2.55666 25.9446 2.80593 26.1939C3.0552 26.4431 3.39328 26.5832 3.74579 26.5832H15.3216V17.2186H12.18V13.5936H15.3216V10.8748C15.2565 10.2365 15.3319 9.59174 15.5424 8.98565C15.7529 8.37957 16.0935 7.82687 16.5402 7.36633C16.9869 6.9058 17.529 6.54857 18.1284 6.31971C18.7278 6.09085 19.37 5.99589 20.01 6.0415C20.9504 6.03572 21.8905 6.08413 22.8254 6.1865V9.449H20.9041C19.3816 9.449 19.0916 10.174 19.0916 11.2253V13.5573H22.7166L22.2454 17.1823H19.0916V26.5832H25.2541C25.4287 26.5832 25.6015 26.5488 25.7628 26.482C25.924 26.4152 26.0706 26.3173 26.194 26.1939C26.3174 26.0704 26.4153 25.9239 26.4821 25.7627C26.5489 25.6014 26.5833 25.4286 26.5833 25.254V3.74567C26.5833 3.57112 26.5489 3.39828 26.4821 3.23702C26.4153 3.07576 26.3174 2.92923 26.194 2.80581C26.0706 2.68238 25.924 2.58448 25.7628 2.51768C25.6015 2.45088 25.4287 2.4165 25.2541 2.4165Z" fill="#3DB457"/>
</svg>
