<svg width="29" height="22" viewBox="0 0 29 22" fill="none" xmlns="http://www.w3.org/2000/svg">
<path d="M12.0833 14.1248L18.3545 10.4998L12.0833 6.87484V14.1248ZM26.0516 4.66359C26.2087 5.2315 26.3175 5.99275 26.39 6.95942C26.4745 7.92609 26.5108 8.75984 26.5108 9.48484L26.5833 10.4998C26.5833 13.1461 26.39 15.0915 26.0516 16.3361C25.7495 17.4236 25.0487 18.1244 23.9612 18.4265C23.3933 18.5836 22.3541 18.6923 20.7591 18.7648C19.1883 18.8494 17.7504 18.8857 16.4212 18.8857L14.5 18.9582C9.43704 18.9582 6.28329 18.7648 5.03871 18.4265C3.95121 18.1244 3.25038 17.4236 2.94829 16.3361C2.79121 15.7682 2.68246 15.0069 2.60996 14.0403C2.52538 13.0736 2.48913 12.2398 2.48913 11.5148L2.41663 10.4998C2.41663 7.85359 2.60996 5.90817 2.94829 4.66359C3.25038 3.57609 3.95121 2.87525 5.03871 2.57317C5.60663 2.41609 6.64579 2.30734 8.24079 2.23484C9.81163 2.15025 11.2495 2.114 12.5787 2.114L14.5 2.0415C19.5629 2.0415 22.7166 2.23484 23.9612 2.57317C25.0487 2.87525 25.7495 3.57609 26.0516 4.66359Z" fill="#3DB457"/>
</svg>
