<svg width="87" height="71" viewBox="0 0 87 71" fill="none" xmlns="http://www.w3.org/2000/svg">
<g clip-path="url(#clip0_60_111)">
<path d="M40.9618 0H0V48.9194H40.9618V0Z" fill="#005107"/>
<path d="M67.3059 11.8786H54.0695V37.0398H67.3059V11.8786Z" fill="#005107"/>
<path d="M49.1757 37.0409H40.9618V48.9194H49.1757V37.0409Z" fill="#005107"/>
<path d="M49.1757 0H40.9618V11.8786H49.1757V0Z" fill="#005107"/>
<path d="M26.168 56.7002H23.8767V57.9329H26.168V56.7002Z" fill="#212121"/>
<path d="M0 53.6185V70.9009H17.3358V53.6185H0ZM13.03 66.8979H3.67035L13.03 58.1139V66.8979Z" fill="#005107"/>
<path d="M46.6759 54.0894H28.0583V56.1916H46.6759V54.0894Z" fill="#212121"/>
<path d="M26.168 59.8897H23.8767V70.9009H26.168V59.8897Z" fill="#212121"/>
<path d="M38.5127 55.8867H36.2215V70.9009H38.5127V55.8867Z" fill="#212121"/>
<path d="M70.506 57.8196C69.9867 57.4593 69.2727 57.5868 68.9113 58.1046C68.5498 58.6223 68.6778 59.3341 69.1971 59.6945L85.2013 70.8007C85.7206 71.1611 86.4346 71.0335 86.7961 70.5158C87.1575 69.998 87.0296 69.2862 86.5103 68.9258L70.506 57.8196Z" fill="#212121"/>
<path d="M69.1902 68.9193C68.6709 69.2796 68.5429 69.9915 68.9044 70.5092C69.2659 71.0269 69.9799 71.1545 70.4992 70.7941L86.5034 59.688C87.0227 59.3276 87.1507 58.6157 86.7892 58.098C86.4277 57.5803 85.7137 57.4527 85.1944 57.8131L69.1902 68.9193Z" fill="#212121"/>
<path d="M65.8436 57.6064H48.6721C48.3937 57.6064 48.1266 57.7166 47.9297 57.9128C47.7327 58.109 47.6219 58.3751 47.6216 58.6527V69.8589C47.6216 70.1367 47.7323 70.4031 47.9293 70.5995C48.1263 70.7959 48.3935 70.9063 48.6721 70.9063H57.5508C57.8241 70.9064 58.0867 70.8001 58.2827 70.6102C58.4787 70.4202 58.5926 70.1615 58.6002 69.8891L58.6132 69.7576C58.6171 69.6176 58.5928 69.4782 58.5418 69.3477C58.4907 69.2172 58.414 69.0982 58.3161 68.9978C58.2181 68.8973 58.101 68.8175 57.9716 68.7629C57.8422 68.7083 57.7031 68.6802 57.5626 68.6801H50.7732C50.6339 68.6801 50.4961 68.6525 50.3676 68.599C50.2392 68.5454 50.1227 68.4669 50.0249 68.368C49.9272 68.2692 49.8501 68.1519 49.7982 68.0231C49.7463 67.8943 49.7206 67.7565 49.7226 67.6177L49.7399 66.2169C49.7408 66.1646 49.7622 66.1147 49.7996 66.078C49.837 66.0413 49.8874 66.0208 49.9399 66.0208H65.8436C66.1222 66.0208 66.3895 65.9104 66.5865 65.714C66.7835 65.5176 66.8942 65.2512 66.8942 64.9734V58.6527C66.8939 58.3751 66.7831 58.109 66.5861 57.9128C66.3891 57.7166 66.1221 57.6064 65.8436 57.6064ZM65.0276 62.6029C65.0276 63.0393 64.6115 63.3938 64.0992 63.3938H51.0401C50.2771 63.3938 49.6578 62.8669 49.6578 62.2161V60.9651C49.6578 60.3713 50.223 59.8875 50.9201 59.8875H64.0992C64.6115 59.8875 65.0276 60.242 65.0276 60.6784V62.6029Z" fill="#212121"/>
</g>
<defs>
<clipPath id="clip0_60_111">
<rect width="87" height="71" fill="white"/>
</clipPath>
</defs>
</svg>
