<svg width="1300" height="1271" viewBox="0 0 1300 1271" fill="none" xmlns="http://www.w3.org/2000/svg">
<path d="M357.012 1150.11C481.645 1196.68 571.497 1059.41 571.497 1059.41C571.497 1059.41 754.956 841.899 360.324 739.512C13.743 649.592 77.9777 868.203 153.418 988.748C171.259 1020.47 232.379 1103.53 357.012 1150.11Z" fill="#B5E2BF"/>
<circle cx="30" cy="30" r="30" fill="white"/>
<circle cx="1270" cy="1241" r="30" fill="white"/>
<path d="M927.392 150.889C799.358 114.692 721.069 258.871 721.069 258.871C721.069 258.871 556.072 490.701 957.772 560.37C1310.56 621.556 1228.61 408.952 1143.54 295.002C1123.15 264.849 1055.43 187.087 927.392 150.889Z" fill="#AEAEAE"/>
</svg>
