<svg width="454" height="364" viewBox="0 0 454 364" fill="none" xmlns="http://www.w3.org/2000/svg">
<path d="M147.988 26.7678C83.0603 55.0919 -7.69101 125.534 0.520268 195.104C14.3705 312.437 309.7 426.738 411.084 324.078C472.677 261.735 471.554 110.517 384.272 38.4927C298.405 -32.3174 177.859 13.7364 147.988 26.7678Z" fill="#B5E2BF"/>
<path d="M313.868 90.4186L319.951 128.861L354.954 146.687L337.303 181.544L355.053 216.401L319.752 234.227L313.669 272.669L274.877 266.594L247.254 294.081L219.532 266.196L181.039 272.57L174.856 233.829L140.053 216.102L157.804 181.245L140.153 146.687L175.155 128.661L181.238 90.5181L219.831 96.892L247.553 68.907L275.176 96.4936L313.868 90.4186ZM222.623 131.749C218.656 131.749 214.851 133.323 212.046 136.124C209.241 138.926 207.665 142.725 207.665 146.687C207.665 150.649 209.241 154.449 212.046 157.25C214.851 160.052 218.656 161.626 222.623 161.626C226.59 161.626 230.395 160.052 233.2 157.25C236.005 154.449 237.581 150.649 237.581 146.687C237.581 142.725 236.005 138.926 233.2 136.124C230.395 133.323 226.59 131.749 222.623 131.749ZM272.484 201.462C268.517 201.462 264.712 203.036 261.907 205.838C259.101 208.639 257.525 212.439 257.525 216.401C257.525 220.363 259.101 224.162 261.907 226.964C264.712 229.765 268.517 231.339 272.484 231.339C276.451 231.339 280.256 229.765 283.061 226.964C285.866 224.162 287.442 220.363 287.442 216.401C287.442 212.439 285.866 208.639 283.061 205.838C280.256 203.036 276.451 201.462 272.484 201.462ZM211.753 231.339L297.414 145.791L283.353 131.749L197.692 217.297L211.753 231.339Z" fill="#3DB457"/>
</svg>
