<svg width="402" height="468" viewBox="0 0 402 468" fill="none" xmlns="http://www.w3.org/2000/svg">
<path d="M7.69165 271.528C-19.1959 229.962 28.3292 126.35 89.4869 114.159C139.123 104.263 154.965 163.16 242.591 182.702C323.785 200.81 367.031 162.923 391.5 190.396C422.589 225.269 377.05 313.325 353.049 350.562C326.777 391.324 254.427 482.752 198.547 465.966C142.668 449.18 159.223 341.47 74.8057 299.505C40.8292 282.628 20.4923 291.315 7.69165 271.528Z" fill="#B5E2BF"/>
<path d="M208.847 134.355C237.381 166.393 287.486 167.376 318.593 145.136C325.329 140.32 347.166 124.705 345.505 105.577C341.791 62.9408 223.08 23.1281 194.052 55.0871C178.194 72.5517 188.741 111.815 208.847 134.355Z" fill="#B5E2BF"/>
<path d="M31.2879 318.603C12.947 319.868 -19.9752 398.022 16.3582 435.542C51.3253 471.652 127.001 445.926 129.462 428.29C130.819 418.731 110.008 415.998 82.4107 388.857C44.7653 351.84 43.5935 317.756 31.2879 318.603Z" fill="#B5E2BF"/>
<path fill-rule="evenodd" clip-rule="evenodd" d="M197.051 242.663C197.051 219.286 215.983 200.336 239.337 200.336C262.692 200.336 281.624 219.286 281.624 242.663C281.624 266.04 262.692 284.99 239.337 284.99H201.28C200.158 284.99 199.083 284.544 198.29 283.75C197.497 282.956 197.051 281.88 197.051 280.757V242.663ZM128.454 221.499C125.34 221.505 122.356 222.746 120.154 224.95C117.952 227.153 116.713 230.141 116.707 233.258C116.707 306.25 175.811 365.411 248.733 365.411C251.847 365.405 254.832 364.164 257.034 361.961C259.236 359.757 260.475 356.769 260.481 353.652V327.393C260.475 324.276 259.236 321.288 257.034 319.084C254.832 316.881 251.847 315.64 248.733 315.634C240.075 315.642 231.47 314.269 223.243 311.567C221.178 310.872 218.96 310.769 216.839 311.267C214.718 311.766 212.778 312.848 211.238 314.39L196.907 328.734C178.524 318.666 163.406 303.537 153.344 285.138L167.679 270.789C169.216 269.261 170.302 267.338 170.818 265.232C171.333 263.126 171.258 260.919 170.601 258.853L170.592 258.823L170.584 258.794C167.874 250.554 166.499 241.933 166.512 233.258C166.506 230.141 165.267 227.153 163.065 224.95C160.863 222.746 157.879 221.505 154.765 221.499H128.454ZM235.109 263.826V246.895H218.194V238.43H235.109V221.499H243.566V238.43H260.481V246.895H243.566V263.826H235.109Z" fill="#3DB457"/>
</svg>
