<svg width="370" height="418" viewBox="0 0 370 418" fill="none" xmlns="http://www.w3.org/2000/svg">
<path d="M21.4241 52.7415C-1.4668 83.2356 -8.59234 134.794 12.8529 155.286C49.5606 190.363 140.581 106.305 213.991 148.411C242.419 164.715 267.967 199.798 260.276 224.031C243.076 278.236 72.6571 236.806 45.4235 300.796C32.0295 332.304 58.4289 377.171 87.7082 398.184C153.312 445.269 277.641 404.211 334.559 319.701C382.884 247.954 382.558 144.974 328.845 76.8022C248.682 -24.963 74.3714 -17.8021 21.4241 52.7415Z" fill="#B5E2BF"/>
<path d="M187.802 231.791C157.175 251.294 108.912 245.363 95.5286 218.527C88.2356 203.896 92.0452 184.526 101.48 172.074C128.136 136.893 206.812 147.523 218.104 176.366C225.074 194.195 206.627 219.803 187.802 231.791Z" fill="#B5E2BF"/>
<g clip-path="url(#clip0_7_965)">
<path d="M88.6757 96.7888L77.615 107.854L97.0996 141.562L109.736 139.708L186.865 216.875L180.286 223.195C176.917 226.566 176.917 231.673 180.286 235.044L183.706 238.473C187.076 241.844 192.231 241.844 194.759 238.473L204.766 248.476C203.924 253.533 204.766 259.541 208.978 263.755L254.518 309.05C263.785 318.32 278.948 318.32 288.214 309.05C299.165 298.938 299.064 283.82 289.798 274.55L244.519 228.985C240.307 224.771 234.301 223.086 229.246 224.771L218.186 214.768C220.713 211.397 220.713 206.24 218.186 203.703L215.027 200.552C214.261 199.753 213.341 199.117 212.324 198.683C211.306 198.249 210.211 198.025 209.105 198.025C207.998 198.025 206.903 198.249 205.885 198.683C204.868 199.117 203.948 199.753 203.183 200.552L197.656 206.08L120.527 128.921L122.363 116.281L88.6757 96.7888ZM252.943 97.0501C236.322 95.668 214.285 106.691 203.974 116.272C191.288 128.963 193.36 145.556 203.444 161.576L185.551 179.484L198.187 193.7C204.926 187.801 214.867 187.801 221.606 193.7L225.034 197.122L225.826 197.914L233.197 190.54C248.428 199.498 264.282 200.788 276.37 188.695C288.163 177.739 300.951 150.722 295.054 134.711L271.366 159.2C267.997 162.571 262.892 162.571 259.522 159.2L235.034 134.711C234.235 133.945 233.6 133.025 233.165 132.007C232.731 130.989 232.508 129.893 232.508 128.786C232.508 127.68 232.731 126.584 233.165 125.566C233.6 124.548 234.235 123.628 235.034 122.862L259.53 98.3731C257.424 97.6315 255.318 97.2523 252.943 97.0501ZM160.279 202.127L129.734 232.676C126.452 231.946 123.097 231.593 119.735 231.622C96.1477 231.622 77.615 250.162 77.615 273.758C77.615 297.354 96.1477 315.893 119.735 315.893C143.322 315.893 161.855 297.354 161.855 273.758C161.855 269.435 161.172 265.28 160.01 261.378L177.911 243.471L175.282 240.049C168.543 233.308 168.594 223.094 174.491 216.344L160.279 202.127ZM225.565 240.58C226.618 240.58 227.612 240.783 228.454 241.634L278.215 291.404C279.9 293.089 279.9 295.769 278.215 297.455C276.53 299.14 273.834 299.14 272.15 297.455L222.406 247.684C220.721 245.999 220.721 243.319 222.406 241.634C223.248 240.791 224.512 240.58 225.565 240.58ZM125.53 251.889L141.587 267.96L135.791 289.811L113.948 295.609L97.883 279.539L103.679 257.687L125.53 251.889Z" fill="#3DB457"/>
</g>
<defs>
<clipPath id="clip0_7_965">
<rect width="219.023" height="219.104" fill="white" transform="translate(77.615 96.7888)"/>
</clipPath>
</defs>
</svg>
